<?xml version="1.0" encoding="utf-8"?>
<!-- Generator: Adobe Illustrator 19.2.1, SVG Export Plug-In . SVG Version: 6.00 Build 0)  -->
<svg version="1.1" id="Layer_1" xmlns="http://www.w3.org/2000/svg" xmlns:xlink="http://www.w3.org/1999/xlink" x="0px" y="0px"
	 viewBox="0 0 99.8 21" style="enable-background:new 0 0 99.8 21;" xml:space="preserve">
<style type="text/css">
	.st0{fill:#CC0000;}
</style>
<g>
	<path class="st0" d="M43.8,19.9L40.4,7.3c-0.6-2-2.5-3.5-4.7-3.5c-0.6,0-1.1,0.1-1.7,0.3l-7.5,2.6h7.7l1.3,4.8
		c-1.3-1.1-2.9-1.7-4.7-1.7c-3.6,0-6.5,2.3-6.5,5.2c0,2.9,2.9,5.3,6.5,5.3c2.6,0,4.9-1.2,6.3-3.1l0.8,2.8H43.8z M33.2,18
		c-1.6,0-3-1.3-3-2.9c0-1.6,1.4-2.9,3-2.9c1.7,0,3,1.3,3,2.9C36.3,16.7,34.9,18,33.2,18"/>
	<path class="st0" d="M58,3.8c-0.5,0-0.9,0.1-1.3,0.3l-4.8,2.2c-0.2-1.4-1.5-2.4-3-2.4c-0.4,0-0.9,0.1-1.3,0.3l-5.9,2.7h4.1v13.2h6
		V8.2c0-0.8,0.7-1.5,1.5-1.5c0.8,0,1.5,0.7,1.5,1.5v11.7h6V6.8C61,5.1,59.6,3.8,58,3.8"/>
	<path class="st0" d="M95.7,3.8c-0.4,0-0.9,0.1-1.3,0.3l-4.8,2.2c-0.2-1.4-1.5-2.4-3-2.4c-0.5,0-0.9,0.1-1.3,0.3l-5.8,2.7h4.1v13.2
		h6V8.2c0-0.8,0.7-1.5,1.5-1.5c0.8,0,1.5,0.7,1.5,1.5v11.7h6V6.8C98.7,5.1,97.4,3.8,95.7,3.8"/>
	<path class="st0" d="M80.5,12.1c0,4.6-3.8,8.3-8.5,8.3c-4.7,0-8.5-3.7-8.5-8.3c0-4.6,3.8-8.3,8.5-8.3C76.7,3.8,80.5,7.5,80.5,12.1
		 M72.4,6.3c-0.3-1-1.3-1.6-2.3-1.3c-1,0.3-1.6,1.3-1.3,2.2l2.9,10.6c0.3,1,1.3,1.5,2.3,1.3c1-0.3,1.6-1.3,1.3-2.2L72.4,6.3z"/>
	<path class="st0" d="M16.5,18.5c-4.6,0-8.3-3.6-8.3-8.1c0-4.4,3.7-8.1,8.3-8.1c1.6,0,3.1,0.5,4.4,1.2l-4.4,6.8l8.3-4.6
		c-0.9-1.4-2.2-2.6-3.8-3.5c-2-1.2-4.7-1.9-7.8-1.9c-4.3,0-8.1,1.5-10.3,3.8c-1.6,1.7-2.5,3.8-2.5,6.2c0,2.3,0.9,4.5,2.5,6.2
		c2.1,2.3,5.9,3.8,10.1,3.8c4.3,0,8-1.5,10.2-3.8c0.1-0.1,0.2-0.3,0.3-0.4L23.2,15C21.7,17.1,19.3,18.5,16.5,18.5"/>
</g>
</svg>
