<?xml version="1.0" encoding="utf-8"?>
<!-- Generator: Adobe Illustrator 19.2.1, SVG Export Plug-In . SVG Version: 6.00 Build 0)  -->
<svg version="1.1" id="Layer_1" xmlns="http://www.w3.org/2000/svg" xmlns:xlink="http://www.w3.org/1999/xlink" x="0px" y="0px"
	 viewBox="0 0 50 50" style="enable-background:new 0 0 50 50;" xml:space="preserve">
<style type="text/css">
	.st0{fill:#409BD6;}
	.st1{fill:#FFFFFF;}
</style>
<g>
	<path class="st0" d="M45,50H5c-2.8,0-5-2.2-5-5V5c0-2.8,2.2-5,5-5h40c2.8,0,5,2.2,5,5v40C50,47.8,47.8,50,45,50z"/>
	<g>
		<path class="st1" d="M20.6,34.6c8.9,0,13.7-7.4,13.7-13.7c0-0.2,0-0.4,0-0.6c0.9-0.7,1.8-1.5,2.4-2.5c-0.9,0.4-1.8,0.6-2.8,0.8
			c1-0.6,1.8-1.5,2.1-2.7c-0.9,0.6-2,1-3.1,1.2c-0.9-0.9-2.1-1.5-3.5-1.5c-2.7,0-4.8,2.2-4.8,4.8c0,0.4,0,0.7,0.1,1.1
			c-4-0.2-7.6-2.1-9.9-5c-0.4,0.7-0.7,1.5-0.7,2.4c0,1.7,0.9,3.2,2.1,4c-0.8,0-1.5-0.2-2.2-0.6c0,0,0,0,0,0.1c0,2.3,1.7,4.3,3.9,4.7
			c-0.4,0.1-0.8,0.2-1.3,0.2c-0.3,0-0.6,0-0.9-0.1c0.6,1.9,2.4,3.3,4.5,3.4c-1.7,1.3-3.7,2.1-6,2.1c-0.4,0-0.8,0-1.2-0.1
			C15.4,33.8,17.9,34.6,20.6,34.6"/>
	</g>
</g>
</svg>
