<?xml version="1.0" encoding="utf-8"?>
<!-- Generator: Adobe Illustrator 19.2.1, SVG Export Plug-In . SVG Version: 6.00 Build 0)  -->
<svg version="1.1" id="Layer_1" xmlns="http://www.w3.org/2000/svg" xmlns:xlink="http://www.w3.org/1999/xlink" x="0px" y="0px"
	 viewBox="0 0 50 50" style="enable-background:new 0 0 50 50;" xml:space="preserve">
<style type="text/css">
	.st0{fill:#0065A1;}
	.st1{fill:#FFFFFF;}
</style>
<g>
	<path class="st0" d="M45,50H5c-2.8,0-5-2.2-5-5V5c0-2.8,2.2-5,5-5h40c2.8,0,5,2.2,5,5v40C50,47.8,47.8,50,45,50z"/>
	<g>
		<path class="st1" d="M15.7,21.8h4v12.8h-4V21.8z M17.7,15.4c1.3,0,2.3,1,2.3,2.3c0,1.3-1,2.3-2.3,2.3c-1.3,0-2.3-1-2.3-2.3
			C15.4,16.4,16.4,15.4,17.7,15.4"/>
		<path class="st1" d="M22.2,21.8H26v1.8h0.1c0.5-1,1.8-2.1,3.8-2.1c4,0,4.8,2.7,4.8,6.1v7h-4v-6.2c0-1.5,0-3.4-2.1-3.4
			c-2.1,0-2.4,1.6-2.4,3.3v6.3h-4V21.8z"/>
	</g>
</g>
</svg>
