<?xml version="1.0" encoding="utf-8"?>
<!-- Generator: Adobe Illustrator 19.2.1, SVG Export Plug-In . SVG Version: 6.00 Build 0)  -->
<svg version="1.1" id="Layer_1" xmlns="http://www.w3.org/2000/svg" xmlns:xlink="http://www.w3.org/1999/xlink" x="0px" y="0px"
	 viewBox="0 0 50 50" style="enable-background:new 0 0 50 50;" xml:space="preserve">
<style type="text/css">
	.st0{fill:#3E5294;}
	.st1{fill:#FFFFFF;}
</style>
<g>
	<path class="st0" d="M45,50H5c-2.8,0-5-2.2-5-5V5c0-2.8,2.2-5,5-5h40c2.8,0,5,2.2,5,5v40C50,47.8,47.8,50,45,50z"/>
	<path id="f" class="st1" d="M26.7,35.8v-9.8H30l0.5-3.8h-3.8v-2.4c0-1.1,0.3-1.9,1.9-1.9l2,0v-3.4c-0.4,0-1.6-0.2-3-0.2
		c-2.9,0-4.9,1.8-4.9,5.1v2.8h-3.3v3.8h3.3v9.8H26.7z"/>
</g>
</svg>
