<svg id="Layer_1" data-name="Layer 1" xmlns="http://www.w3.org/2000/svg" viewBox="0 0 50 50"><defs><style>.cls-1{fill:#672f88;}.cls-2{fill:#fff;}</style></defs><title>Yahoo</title><path class="cls-1" d="M636.8,457.5h-40a5,5,0,0,1-5-5v-40a5,5,0,0,1,5-5h40a5,5,0,0,1,5,5v40A5,5,0,0,1,636.8,457.5Z" transform="translate(-591.8 -407.5)"/><path class="cls-2" d="M628.5,427.5h0l0.8-.9h0l0.1-.1H618.3l0.4,1.5h3l-5.1,4.7c-1-1.5-3.5-5-5.2-7.6h3.2v-1.4h0v-0.1h-12v1.5h3.7c1.5,1.2,7.8,8.8,8,9.6a27.74,27.74,0,0,1,0,5c-0.3.5-3.7,0.2-4.3,0.3v1.5h5.5c2.2,0,6-.1,6.6,0l0.1-1.4-4.4-.1a44.24,44.24,0,0,1-.1-5.1c0.4-1.3,7.2-6.5,7.9-6.7l0.7-.1h2A0.85,0.85,0,0,1,628.5,427.5Zm-1.7,10.4,1.9,0.1,2.2-8.2c-0.4,0-3.8-.3-4.2-0.4Zm-0.3,1.4v2l1,0.1,1,0.1,0.3-2-1.1-.1Z" transform="translate(-591.8 -407.5)"/></svg>